<svg width="789" height="180" viewBox="0 0 789 180" fill="none" xmlns="http://www.w3.org/2000/svg">
<g clip-path="url(#clip0)">
<rect width="789" height="180" fill="white"/>
<rect x="501" width="288" height="180" fill="#E5FAEF"/>
<path d="M528.799 153.308C528.799 153.765 528.715 154.195 528.547 154.596C528.379 154.988 528.141 155.329 527.833 155.618C527.534 155.907 527.175 156.136 526.755 156.304C526.335 156.472 525.868 156.556 525.355 156.556H523.829V160H522.191V150.06H525.355C525.868 150.06 526.335 150.144 526.755 150.312C527.175 150.48 527.534 150.709 527.833 150.998C528.141 151.287 528.379 151.633 528.547 152.034C528.715 152.426 528.799 152.851 528.799 153.308ZM527.189 153.308C527.189 152.823 527.025 152.417 526.699 152.09C526.381 151.763 525.929 151.6 525.341 151.6H523.829V155.016H525.341C525.929 155.016 526.381 154.853 526.699 154.526C527.025 154.199 527.189 153.793 527.189 153.308ZM531.921 150.06H533.559V158.432H538.109V160H531.921V150.06ZM544.283 150.06H545.711L550.051 160H548.343L547.209 157.396H542.757L541.637 160H539.943L544.283 150.06ZM543.387 155.94H546.579L544.983 152.272L543.387 155.94ZM553.834 151.628H550.95V150.06H558.37V151.628H555.472V160H553.834V151.628ZM561.345 150.06H567.253V151.628H562.983V154.19H566.343V155.744H562.983V160H561.345V150.06ZM574.695 158.586C575.18 158.586 575.633 158.493 576.053 158.306C576.482 158.119 576.851 157.867 577.159 157.55C577.476 157.223 577.723 156.845 577.901 156.416C578.078 155.987 578.167 155.525 578.167 155.03C578.167 154.535 578.078 154.073 577.901 153.644C577.723 153.215 577.476 152.841 577.159 152.524C576.851 152.197 576.482 151.941 576.053 151.754C575.633 151.567 575.18 151.474 574.695 151.474C574.2 151.474 573.738 151.567 573.309 151.754C572.889 151.941 572.52 152.197 572.203 152.524C571.895 152.841 571.652 153.215 571.475 153.644C571.297 154.073 571.209 154.535 571.209 155.03C571.209 155.525 571.297 155.987 571.475 156.416C571.652 156.845 571.895 157.223 572.203 157.55C572.52 157.867 572.889 158.119 573.309 158.306C573.738 158.493 574.2 158.586 574.695 158.586ZM574.695 160.168C573.976 160.168 573.304 160.037 572.679 159.776C572.063 159.505 571.521 159.141 571.055 158.684C570.588 158.217 570.219 157.671 569.949 157.046C569.687 156.421 569.557 155.749 569.557 155.03C569.557 154.311 569.687 153.639 569.949 153.014C570.219 152.389 570.588 151.847 571.055 151.39C571.521 150.923 572.063 150.559 572.679 150.298C573.304 150.027 573.976 149.892 574.695 149.892C575.404 149.892 576.071 150.027 576.697 150.298C577.322 150.559 577.863 150.923 578.321 151.39C578.787 151.847 579.156 152.389 579.427 153.014C579.697 153.639 579.833 154.311 579.833 155.03C579.833 155.749 579.697 156.421 579.427 157.046C579.156 157.671 578.787 158.217 578.321 158.684C577.863 159.141 577.322 159.505 576.697 159.776C576.071 160.037 575.404 160.168 574.695 160.168ZM583.13 150.06H586.714C587.171 150.06 587.587 150.13 587.96 150.27C588.333 150.41 588.651 150.606 588.912 150.858C589.173 151.11 589.374 151.409 589.514 151.754C589.654 152.099 589.724 152.477 589.724 152.888C589.724 153.588 589.528 154.167 589.136 154.624C588.744 155.072 588.189 155.375 587.47 155.534L591.166 160H589.15L585.51 155.632H584.768V160H583.13V150.06ZM586.518 154.204C587.003 154.204 587.386 154.092 587.666 153.868C587.946 153.644 588.086 153.317 588.086 152.888C588.086 152.459 587.946 152.132 587.666 151.908C587.386 151.684 587.003 151.572 586.518 151.572H584.768V154.204H586.518ZM593.654 150.06H595.152L598.624 155.618L602.096 150.06H603.594V160H601.956V153.21L599.198 157.634H598.078L595.292 153.196V160H593.654V150.06ZM615.276 160.168C614.716 160.168 614.216 160.084 613.778 159.916C613.339 159.748 612.966 159.524 612.658 159.244C612.35 158.964 612.107 158.642 611.93 158.278C611.762 157.914 611.668 157.536 611.65 157.144H613.288C613.316 157.396 613.39 157.615 613.512 157.802C613.642 157.989 613.796 158.147 613.974 158.278C614.16 158.399 614.366 158.493 614.59 158.558C614.814 158.614 615.038 158.642 615.262 158.642C615.738 158.642 616.134 158.53 616.452 158.306C616.769 158.082 616.928 157.774 616.928 157.382C616.928 156.71 616.47 156.225 615.556 155.926L614.338 155.52C613.544 155.268 612.938 154.909 612.518 154.442C612.107 153.975 611.902 153.378 611.902 152.65C611.902 152.221 611.976 151.838 612.126 151.502C612.284 151.157 612.504 150.867 612.784 150.634C613.064 150.391 613.395 150.209 613.778 150.088C614.17 149.957 614.599 149.892 615.066 149.892C615.579 149.892 616.036 149.976 616.438 150.144C616.839 150.312 617.18 150.531 617.46 150.802C617.74 151.063 617.954 151.367 618.104 151.712C618.253 152.048 618.342 152.389 618.37 152.734H616.732C616.676 152.501 616.587 152.3 616.466 152.132C616.354 151.964 616.218 151.829 616.06 151.726C615.91 151.623 615.747 151.549 615.57 151.502C615.392 151.446 615.215 151.418 615.038 151.418C614.618 151.418 614.263 151.521 613.974 151.726C613.694 151.931 613.549 152.211 613.54 152.566C613.54 152.93 613.652 153.219 613.876 153.434C614.1 153.649 614.436 153.831 614.884 153.98L616.116 154.372C616.9 154.624 617.506 154.993 617.936 155.478C618.365 155.954 618.58 156.57 618.58 157.326C618.58 157.746 618.5 158.133 618.342 158.488C618.183 158.833 617.954 159.132 617.656 159.384C617.366 159.627 617.016 159.818 616.606 159.958C616.204 160.098 615.761 160.168 615.276 160.168ZM623.656 151.628H620.772V150.06H628.192V151.628H625.294V160H623.656V151.628ZM633.402 150.06H634.83L639.17 160H637.462L636.328 157.396H631.876L630.756 160H629.062L633.402 150.06ZM632.506 155.94H635.698L634.102 152.272L632.506 155.94ZM641.95 150.06H645.38C645.828 150.06 646.234 150.135 646.598 150.284C646.962 150.424 647.27 150.62 647.522 150.872C647.784 151.124 647.984 151.418 648.124 151.754C648.274 152.081 648.348 152.431 648.348 152.804C648.348 153.252 648.26 153.635 648.082 153.952C647.914 154.26 647.695 154.517 647.424 154.722C647.882 154.909 648.26 155.198 648.558 155.59C648.866 155.973 649.02 156.472 649.02 157.088C649.02 157.499 648.941 157.881 648.782 158.236C648.624 158.591 648.404 158.899 648.124 159.16C647.844 159.421 647.508 159.627 647.116 159.776C646.724 159.925 646.29 160 645.814 160H641.95V150.06ZM645.772 158.502C646.304 158.502 646.71 158.371 646.99 158.11C647.28 157.839 647.424 157.494 647.424 157.074C647.424 156.663 647.28 156.323 646.99 156.052C646.71 155.781 646.304 155.646 645.772 155.646H643.588V158.502H645.772ZM645.296 154.246C645.744 154.246 646.094 154.12 646.346 153.868C646.608 153.607 646.738 153.285 646.738 152.902C646.738 152.538 646.608 152.225 646.346 151.964C646.094 151.693 645.744 151.558 645.296 151.558H643.588V154.246H645.296ZM652.282 150.06H653.92V160H652.282V150.06ZM657.857 150.06H659.495V158.432H664.045V160H657.857V150.06ZM667.04 150.06H668.678V160H667.04V150.06ZM674.546 151.628H671.662V150.06H679.082V151.628H676.184V160H674.546V151.628ZM684.788 155.8L681.022 150.06H682.94L685.6 154.176L688.274 150.06H690.206L686.426 155.814V160H684.788V155.8Z" fill="black"/>
<path d="M680.336 56.3516H675.836V61H673.492V49.625H680.898V51.5234H675.836V54.4609H680.336V56.3516ZM684.492 61H682.227V52.5469H684.492V61ZM682.094 50.3594C682.094 50.0208 682.206 49.7422 682.43 49.5234C682.659 49.3047 682.969 49.1953 683.359 49.1953C683.745 49.1953 684.052 49.3047 684.281 49.5234C684.51 49.7422 684.625 50.0208 684.625 50.3594C684.625 50.7031 684.508 50.9844 684.273 51.2031C684.044 51.4219 683.74 51.5312 683.359 51.5312C682.979 51.5312 682.672 51.4219 682.438 51.2031C682.208 50.9844 682.094 50.7031 682.094 50.3594ZM688.438 52.5469L688.508 53.5234C689.112 52.7682 689.922 52.3906 690.938 52.3906C691.833 52.3906 692.5 52.6536 692.938 53.1797C693.375 53.7057 693.599 54.4922 693.609 55.5391V61H691.352V55.5938C691.352 55.1146 691.247 54.7682 691.039 54.5547C690.831 54.3359 690.484 54.2266 690 54.2266C689.365 54.2266 688.888 54.4974 688.57 55.0391V61H686.312V52.5469H688.438ZM700.227 61C700.122 60.7969 700.047 60.5443 700 60.2422C699.453 60.8516 698.742 61.1562 697.867 61.1562C697.039 61.1562 696.352 60.9167 695.805 60.4375C695.263 59.9583 694.992 59.3542 694.992 58.625C694.992 57.7292 695.323 57.0417 695.984 56.5625C696.651 56.0833 697.612 55.8411 698.867 55.8359H699.906V55.3516C699.906 54.9609 699.805 54.6484 699.602 54.4141C699.404 54.1797 699.089 54.0625 698.656 54.0625C698.276 54.0625 697.977 54.1536 697.758 54.3359C697.544 54.5182 697.438 54.7682 697.438 55.0859H695.18C695.18 54.5964 695.331 54.1432 695.633 53.7266C695.935 53.3099 696.362 52.9844 696.914 52.75C697.466 52.5104 698.086 52.3906 698.773 52.3906C699.815 52.3906 700.641 52.6536 701.25 53.1797C701.865 53.7005 702.172 54.4349 702.172 55.3828V59.0469C702.177 59.849 702.289 60.4557 702.508 60.8672V61H700.227ZM698.359 59.4297C698.693 59.4297 699 59.3568 699.281 59.2109C699.562 59.0599 699.771 58.8594 699.906 58.6094V57.1562H699.062C697.932 57.1562 697.331 57.5469 697.258 58.3281L697.25 58.4609C697.25 58.7422 697.349 58.974 697.547 59.1562C697.745 59.3385 698.016 59.4297 698.359 59.4297ZM706.289 61H704.023V49H706.289V61ZM716.5 56.8359H714.633V61H712.289V49.625H716.516C717.859 49.625 718.896 49.9245 719.625 50.5234C720.354 51.1224 720.719 51.9688 720.719 53.0625C720.719 53.8385 720.549 54.487 720.211 55.0078C719.878 55.5234 719.37 55.9349 718.688 56.2422L721.148 60.8906V61H718.633L716.5 56.8359ZM714.633 54.9375H716.523C717.112 54.9375 717.568 54.7891 717.891 54.4922C718.214 54.1901 718.375 53.776 718.375 53.25C718.375 52.7135 718.221 52.2917 717.914 51.9844C717.612 51.6771 717.146 51.5234 716.516 51.5234H714.633V54.9375ZM726.25 61.1562C725.01 61.1562 724 60.776 723.219 60.0156C722.443 59.2552 722.055 58.2422 722.055 56.9766V56.7578C722.055 55.9089 722.219 55.151 722.547 54.4844C722.875 53.8125 723.339 53.2969 723.938 52.9375C724.542 52.5729 725.229 52.3906 726 52.3906C727.156 52.3906 728.065 52.7552 728.727 53.4844C729.393 54.2135 729.727 55.2474 729.727 56.5859V57.5078H724.344C724.417 58.0599 724.635 58.5026 725 58.8359C725.37 59.1693 725.836 59.3359 726.398 59.3359C727.268 59.3359 727.948 59.0208 728.438 58.3906L729.547 59.6328C729.208 60.112 728.75 60.487 728.172 60.7578C727.594 61.0234 726.953 61.1562 726.25 61.1562ZM725.992 54.2188C725.544 54.2188 725.18 54.3698 724.898 54.6719C724.622 54.974 724.445 55.4062 724.367 55.9688H727.508V55.7891C727.497 55.2891 727.362 54.9036 727.102 54.6328C726.841 54.3568 726.471 54.2188 725.992 54.2188ZM733.398 61H731.133V49H733.398V61ZM739.156 61.1562C737.917 61.1562 736.906 60.776 736.125 60.0156C735.349 59.2552 734.961 58.2422 734.961 56.9766V56.7578C734.961 55.9089 735.125 55.151 735.453 54.4844C735.781 53.8125 736.245 53.2969 736.844 52.9375C737.448 52.5729 738.135 52.3906 738.906 52.3906C740.062 52.3906 740.971 52.7552 741.633 53.4844C742.299 54.2135 742.633 55.2474 742.633 56.5859V57.5078H737.25C737.323 58.0599 737.542 58.5026 737.906 58.8359C738.276 59.1693 738.742 59.3359 739.305 59.3359C740.174 59.3359 740.854 59.0208 741.344 58.3906L742.453 59.6328C742.115 60.112 741.656 60.487 741.078 60.7578C740.5 61.0234 739.859 61.1562 739.156 61.1562ZM738.898 54.2188C738.451 54.2188 738.086 54.3698 737.805 54.6719C737.529 54.974 737.352 55.4062 737.273 55.9688H740.414V55.7891C740.404 55.2891 740.268 54.9036 740.008 54.6328C739.747 54.3568 739.378 54.2188 738.898 54.2188ZM748.82 61C748.716 60.7969 748.641 60.5443 748.594 60.2422C748.047 60.8516 747.336 61.1562 746.461 61.1562C745.633 61.1562 744.945 60.9167 744.398 60.4375C743.857 59.9583 743.586 59.3542 743.586 58.625C743.586 57.7292 743.917 57.0417 744.578 56.5625C745.245 56.0833 746.206 55.8411 747.461 55.8359H748.5V55.3516C748.5 54.9609 748.398 54.6484 748.195 54.4141C747.997 54.1797 747.682 54.0625 747.25 54.0625C746.87 54.0625 746.57 54.1536 746.352 54.3359C746.138 54.5182 746.031 54.7682 746.031 55.0859H743.773C743.773 54.5964 743.924 54.1432 744.227 53.7266C744.529 53.3099 744.956 52.9844 745.508 52.75C746.06 52.5104 746.68 52.3906 747.367 52.3906C748.409 52.3906 749.234 52.6536 749.844 53.1797C750.458 53.7005 750.766 54.4349 750.766 55.3828V59.0469C750.771 59.849 750.883 60.4557 751.102 60.8672V61H748.82ZM746.953 59.4297C747.286 59.4297 747.594 59.3568 747.875 59.2109C748.156 59.0599 748.365 58.8594 748.5 58.6094V57.1562H747.656C746.526 57.1562 745.924 57.5469 745.852 58.3281L745.844 58.4609C745.844 58.7422 745.943 58.974 746.141 59.1562C746.339 59.3385 746.609 59.4297 746.953 59.4297ZM757.078 58.6641C757.078 58.388 756.94 58.1719 756.664 58.0156C756.393 57.8542 755.956 57.7109 755.352 57.5859C753.341 57.1641 752.336 56.3099 752.336 55.0234C752.336 54.2734 752.646 53.6484 753.266 53.1484C753.891 52.6432 754.706 52.3906 755.711 52.3906C756.784 52.3906 757.641 52.6432 758.281 53.1484C758.927 53.6536 759.25 54.3099 759.25 55.1172H756.992C756.992 54.7943 756.888 54.5286 756.68 54.3203C756.471 54.1068 756.146 54 755.703 54C755.323 54 755.029 54.0859 754.82 54.2578C754.612 54.4297 754.508 54.6484 754.508 54.9141C754.508 55.1641 754.625 55.3672 754.859 55.5234C755.099 55.6745 755.5 55.8073 756.062 55.9219C756.625 56.0312 757.099 56.1562 757.484 56.2969C758.677 56.7344 759.273 57.4922 759.273 58.5703C759.273 59.3411 758.943 59.9661 758.281 60.4453C757.62 60.9193 756.766 61.1562 755.719 61.1562C755.01 61.1562 754.38 61.0312 753.828 60.7812C753.281 60.526 752.852 60.1797 752.539 59.7422C752.227 59.2995 752.07 58.8229 752.07 58.3125H754.211C754.232 58.7135 754.38 59.0208 754.656 59.2344C754.932 59.4479 755.302 59.5547 755.766 59.5547C756.198 59.5547 756.523 59.474 756.742 59.3125C756.966 59.1458 757.078 58.9297 757.078 58.6641ZM764.625 61.1562C763.385 61.1562 762.375 60.776 761.594 60.0156C760.818 59.2552 760.43 58.2422 760.43 56.9766V56.7578C760.43 55.9089 760.594 55.151 760.922 54.4844C761.25 53.8125 761.714 53.2969 762.312 52.9375C762.917 52.5729 763.604 52.3906 764.375 52.3906C765.531 52.3906 766.44 52.7552 767.102 53.4844C767.768 54.2135 768.102 55.2474 768.102 56.5859V57.5078H762.719C762.792 58.0599 763.01 58.5026 763.375 58.8359C763.745 59.1693 764.211 59.3359 764.773 59.3359C765.643 59.3359 766.323 59.0208 766.812 58.3906L767.922 59.6328C767.583 60.112 767.125 60.487 766.547 60.7578C765.969 61.0234 765.328 61.1562 764.625 61.1562ZM764.367 54.2188C763.919 54.2188 763.555 54.3698 763.273 54.6719C762.997 54.974 762.82 55.4062 762.742 55.9688H765.883V55.7891C765.872 55.2891 765.737 54.9036 765.477 54.6328C765.216 54.3568 764.846 54.2188 764.367 54.2188Z" fill="#188038"/>
<path d="M345.988 60V48.625H349.973C351.353 48.625 352.4 48.8906 353.113 49.4219C353.827 49.9479 354.184 50.7214 354.184 51.7422C354.184 52.2995 354.04 52.7917 353.754 53.2188C353.467 53.6406 353.069 53.9505 352.559 54.1484C353.142 54.2943 353.6 54.5885 353.934 55.0312C354.272 55.474 354.441 56.0156 354.441 56.6562C354.441 57.75 354.092 58.5781 353.395 59.1406C352.697 59.7031 351.702 59.9896 350.41 60H345.988ZM348.332 55.0469V58.1172H350.34C350.892 58.1172 351.322 57.987 351.629 57.7266C351.941 57.4609 352.098 57.0964 352.098 56.6328C352.098 55.5911 351.559 55.0625 350.48 55.0469H348.332ZM348.332 53.3906H350.066C351.249 53.3698 351.84 52.8984 351.84 51.9766C351.84 51.4609 351.689 51.0911 351.387 50.8672C351.09 50.638 350.618 50.5234 349.973 50.5234H348.332V53.3906ZM359.949 60.1562C358.71 60.1562 357.699 59.776 356.918 59.0156C356.142 58.2552 355.754 57.2422 355.754 55.9766V55.7578C355.754 54.9089 355.918 54.151 356.246 53.4844C356.574 52.8125 357.038 52.2969 357.637 51.9375C358.241 51.5729 358.928 51.3906 359.699 51.3906C360.855 51.3906 361.764 51.7552 362.426 52.4844C363.092 53.2135 363.426 54.2474 363.426 55.5859V56.5078H358.043C358.116 57.0599 358.335 57.5026 358.699 57.8359C359.069 58.1693 359.535 58.3359 360.098 58.3359C360.967 58.3359 361.647 58.0208 362.137 57.3906L363.246 58.6328C362.908 59.112 362.449 59.487 361.871 59.7578C361.293 60.0234 360.652 60.1562 359.949 60.1562ZM359.691 53.2188C359.243 53.2188 358.879 53.3698 358.598 53.6719C358.322 53.974 358.145 54.4062 358.066 54.9688H361.207V54.7891C361.197 54.2891 361.061 53.9036 360.801 53.6328C360.54 53.3568 360.171 53.2188 359.691 53.2188ZM367.418 49.4688V51.5469H368.863V53.2031H367.418V57.4219C367.418 57.7344 367.478 57.9583 367.598 58.0938C367.717 58.2292 367.947 58.2969 368.285 58.2969C368.535 58.2969 368.757 58.2786 368.949 58.2422V59.9531C368.507 60.0885 368.051 60.1562 367.582 60.1562C365.999 60.1562 365.191 59.3568 365.16 57.7578V53.2031H363.926V51.5469H365.16V49.4688H367.418ZM375.02 60C374.915 59.7969 374.84 59.5443 374.793 59.2422C374.246 59.8516 373.535 60.1562 372.66 60.1562C371.832 60.1562 371.145 59.9167 370.598 59.4375C370.056 58.9583 369.785 58.3542 369.785 57.625C369.785 56.7292 370.116 56.0417 370.777 55.5625C371.444 55.0833 372.405 54.8411 373.66 54.8359H374.699V54.3516C374.699 53.9609 374.598 53.6484 374.395 53.4141C374.197 53.1797 373.882 53.0625 373.449 53.0625C373.069 53.0625 372.77 53.1536 372.551 53.3359C372.337 53.5182 372.23 53.7682 372.23 54.0859H369.973C369.973 53.5964 370.124 53.1432 370.426 52.7266C370.728 52.3099 371.155 51.9844 371.707 51.75C372.259 51.5104 372.879 51.3906 373.566 51.3906C374.608 51.3906 375.434 51.6536 376.043 52.1797C376.658 52.7005 376.965 53.4349 376.965 54.3828V58.0469C376.97 58.849 377.082 59.4557 377.301 59.8672V60H375.02ZM373.152 58.4297C373.486 58.4297 373.793 58.3568 374.074 58.2109C374.355 58.0599 374.564 57.8594 374.699 57.6094V56.1562H373.855C372.725 56.1562 372.124 56.5469 372.051 57.3281L372.043 57.4609C372.043 57.7422 372.142 57.974 372.34 58.1562C372.538 58.3385 372.809 58.4297 373.152 58.4297ZM387.043 55.8359H385.176V60H382.832V48.625H387.059C388.402 48.625 389.439 48.9245 390.168 49.5234C390.897 50.1224 391.262 50.9688 391.262 52.0625C391.262 52.8385 391.092 53.487 390.754 54.0078C390.421 54.5234 389.913 54.9349 389.23 55.2422L391.691 59.8906V60H389.176L387.043 55.8359ZM385.176 53.9375H387.066C387.655 53.9375 388.111 53.7891 388.434 53.4922C388.757 53.1901 388.918 52.776 388.918 52.25C388.918 51.7135 388.764 51.2917 388.457 50.9844C388.155 50.6771 387.689 50.5234 387.059 50.5234H385.176V53.9375ZM396.793 60.1562C395.553 60.1562 394.543 59.776 393.762 59.0156C392.986 58.2552 392.598 57.2422 392.598 55.9766V55.7578C392.598 54.9089 392.762 54.151 393.09 53.4844C393.418 52.8125 393.882 52.2969 394.48 51.9375C395.085 51.5729 395.772 51.3906 396.543 51.3906C397.699 51.3906 398.608 51.7552 399.27 52.4844C399.936 53.2135 400.27 54.2474 400.27 55.5859V56.5078H394.887C394.96 57.0599 395.178 57.5026 395.543 57.8359C395.913 58.1693 396.379 58.3359 396.941 58.3359C397.811 58.3359 398.491 58.0208 398.98 57.3906L400.09 58.6328C399.751 59.112 399.293 59.487 398.715 59.7578C398.137 60.0234 397.496 60.1562 396.793 60.1562ZM396.535 53.2188C396.087 53.2188 395.723 53.3698 395.441 53.6719C395.165 53.974 394.988 54.4062 394.91 54.9688H398.051V54.7891C398.04 54.2891 397.905 53.9036 397.645 53.6328C397.384 53.3568 397.014 53.2188 396.535 53.2188ZM403.941 60H401.676V48H403.941V60ZM409.699 60.1562C408.46 60.1562 407.449 59.776 406.668 59.0156C405.892 58.2552 405.504 57.2422 405.504 55.9766V55.7578C405.504 54.9089 405.668 54.151 405.996 53.4844C406.324 52.8125 406.788 52.2969 407.387 51.9375C407.991 51.5729 408.678 51.3906 409.449 51.3906C410.605 51.3906 411.514 51.7552 412.176 52.4844C412.842 53.2135 413.176 54.2474 413.176 55.5859V56.5078H407.793C407.866 57.0599 408.085 57.5026 408.449 57.8359C408.819 58.1693 409.285 58.3359 409.848 58.3359C410.717 58.3359 411.397 58.0208 411.887 57.3906L412.996 58.6328C412.658 59.112 412.199 59.487 411.621 59.7578C411.043 60.0234 410.402 60.1562 409.699 60.1562ZM409.441 53.2188C408.993 53.2188 408.629 53.3698 408.348 53.6719C408.072 53.974 407.895 54.4062 407.816 54.9688H410.957V54.7891C410.947 54.2891 410.811 53.9036 410.551 53.6328C410.29 53.3568 409.921 53.2188 409.441 53.2188ZM419.363 60C419.259 59.7969 419.184 59.5443 419.137 59.2422C418.59 59.8516 417.879 60.1562 417.004 60.1562C416.176 60.1562 415.488 59.9167 414.941 59.4375C414.4 58.9583 414.129 58.3542 414.129 57.625C414.129 56.7292 414.46 56.0417 415.121 55.5625C415.788 55.0833 416.749 54.8411 418.004 54.8359H419.043V54.3516C419.043 53.9609 418.941 53.6484 418.738 53.4141C418.54 53.1797 418.225 53.0625 417.793 53.0625C417.413 53.0625 417.113 53.1536 416.895 53.3359C416.681 53.5182 416.574 53.7682 416.574 54.0859H414.316C414.316 53.5964 414.467 53.1432 414.77 52.7266C415.072 52.3099 415.499 51.9844 416.051 51.75C416.603 51.5104 417.223 51.3906 417.91 51.3906C418.952 51.3906 419.777 51.6536 420.387 52.1797C421.001 52.7005 421.309 53.4349 421.309 54.3828V58.0469C421.314 58.849 421.426 59.4557 421.645 59.8672V60H419.363ZM417.496 58.4297C417.829 58.4297 418.137 58.3568 418.418 58.2109C418.699 58.0599 418.908 57.8594 419.043 57.6094V56.1562H418.199C417.069 56.1562 416.467 56.5469 416.395 57.3281L416.387 57.4609C416.387 57.7422 416.486 57.974 416.684 58.1562C416.882 58.3385 417.152 58.4297 417.496 58.4297ZM427.621 57.6641C427.621 57.388 427.483 57.1719 427.207 57.0156C426.936 56.8542 426.499 56.7109 425.895 56.5859C423.884 56.1641 422.879 55.3099 422.879 54.0234C422.879 53.2734 423.189 52.6484 423.809 52.1484C424.434 51.6432 425.249 51.3906 426.254 51.3906C427.327 51.3906 428.184 51.6432 428.824 52.1484C429.47 52.6536 429.793 53.3099 429.793 54.1172H427.535C427.535 53.7943 427.431 53.5286 427.223 53.3203C427.014 53.1068 426.689 53 426.246 53C425.866 53 425.572 53.0859 425.363 53.2578C425.155 53.4297 425.051 53.6484 425.051 53.9141C425.051 54.1641 425.168 54.3672 425.402 54.5234C425.642 54.6745 426.043 54.8073 426.605 54.9219C427.168 55.0312 427.642 55.1562 428.027 55.2969C429.22 55.7344 429.816 56.4922 429.816 57.5703C429.816 58.3411 429.486 58.9661 428.824 59.4453C428.163 59.9193 427.309 60.1562 426.262 60.1562C425.553 60.1562 424.923 60.0312 424.371 59.7812C423.824 59.526 423.395 59.1797 423.082 58.7422C422.77 58.2995 422.613 57.8229 422.613 57.3125H424.754C424.775 57.7135 424.923 58.0208 425.199 58.2344C425.475 58.4479 425.845 58.5547 426.309 58.5547C426.741 58.5547 427.066 58.474 427.285 58.3125C427.509 58.1458 427.621 57.9297 427.621 57.6641ZM435.168 60.1562C433.928 60.1562 432.918 59.776 432.137 59.0156C431.361 58.2552 430.973 57.2422 430.973 55.9766V55.7578C430.973 54.9089 431.137 54.151 431.465 53.4844C431.793 52.8125 432.257 52.2969 432.855 51.9375C433.46 51.5729 434.147 51.3906 434.918 51.3906C436.074 51.3906 436.983 51.7552 437.645 52.4844C438.311 53.2135 438.645 54.2474 438.645 55.5859V56.5078H433.262C433.335 57.0599 433.553 57.5026 433.918 57.8359C434.288 58.1693 434.754 58.3359 435.316 58.3359C436.186 58.3359 436.866 58.0208 437.355 57.3906L438.465 58.6328C438.126 59.112 437.668 59.487 437.09 59.7578C436.512 60.0234 435.871 60.1562 435.168 60.1562ZM434.91 53.2188C434.462 53.2188 434.098 53.3698 433.816 53.6719C433.54 53.974 433.363 54.4062 433.285 54.9688H436.426V54.7891C436.415 54.2891 436.28 53.9036 436.02 53.6328C435.759 53.3568 435.389 53.2188 434.91 53.2188ZM444.512 57.6641C444.512 57.388 444.374 57.1719 444.098 57.0156C443.827 56.8542 443.389 56.7109 442.785 56.5859C440.775 56.1641 439.77 55.3099 439.77 54.0234C439.77 53.2734 440.079 52.6484 440.699 52.1484C441.324 51.6432 442.139 51.3906 443.145 51.3906C444.217 51.3906 445.074 51.6432 445.715 52.1484C446.361 52.6536 446.684 53.3099 446.684 54.1172H444.426C444.426 53.7943 444.322 53.5286 444.113 53.3203C443.905 53.1068 443.579 53 443.137 53C442.757 53 442.462 53.0859 442.254 53.2578C442.046 53.4297 441.941 53.6484 441.941 53.9141C441.941 54.1641 442.059 54.3672 442.293 54.5234C442.533 54.6745 442.934 54.8073 443.496 54.9219C444.059 55.0312 444.533 55.1562 444.918 55.2969C446.111 55.7344 446.707 56.4922 446.707 57.5703C446.707 58.3411 446.376 58.9661 445.715 59.4453C445.053 59.9193 444.199 60.1562 443.152 60.1562C442.444 60.1562 441.814 60.0312 441.262 59.7812C440.715 59.526 440.285 59.1797 439.973 58.7422C439.66 58.2995 439.504 57.8229 439.504 57.3125H441.645C441.665 57.7135 441.814 58.0208 442.09 58.2344C442.366 58.4479 442.736 58.5547 443.199 58.5547C443.632 58.5547 443.957 58.474 444.176 58.3125C444.4 58.1458 444.512 57.9297 444.512 57.6641Z" fill="#4285F4"/>
<path d="M51.0156 59V47.625H54.5156C55.5156 47.625 56.4089 47.8516 57.1953 48.3047C57.987 48.7526 58.6042 49.3932 59.0469 50.2266C59.4896 51.0547 59.7109 51.9974 59.7109 53.0547V53.5781C59.7109 54.6354 59.4922 55.5755 59.0547 56.3984C58.6224 57.2214 58.0104 57.8594 57.2188 58.3125C56.4271 58.7656 55.5339 58.9948 54.5391 59H51.0156ZM53.3594 49.5234V57.1172H54.4922C55.4089 57.1172 56.1094 56.8177 56.5938 56.2188C57.0781 55.6198 57.3255 54.763 57.3359 53.6484V53.0469C57.3359 51.8906 57.0964 51.0156 56.6172 50.4219C56.138 49.8229 55.4375 49.5234 54.5156 49.5234H53.3594ZM65.1641 59.1562C63.9245 59.1562 62.9141 58.776 62.1328 58.0156C61.3568 57.2552 60.9688 56.2422 60.9688 54.9766V54.7578C60.9688 53.9089 61.1328 53.151 61.4609 52.4844C61.7891 51.8125 62.2526 51.2969 62.8516 50.9375C63.4557 50.5729 64.1432 50.3906 64.9141 50.3906C66.0703 50.3906 66.9792 50.7552 67.6406 51.4844C68.3073 52.2135 68.6406 53.2474 68.6406 54.5859V55.5078H63.2578C63.3307 56.0599 63.5495 56.5026 63.9141 56.8359C64.2839 57.1693 64.75 57.3359 65.3125 57.3359C66.1823 57.3359 66.862 57.0208 67.3516 56.3906L68.4609 57.6328C68.1224 58.112 67.6641 58.487 67.0859 58.7578C66.5078 59.0234 65.8672 59.1562 65.1641 59.1562ZM64.9062 52.2188C64.4583 52.2188 64.0938 52.3698 63.8125 52.6719C63.5365 52.974 63.3594 53.4062 63.2812 53.9688H66.4219V53.7891C66.4115 53.2891 66.276 52.9036 66.0156 52.6328C65.7552 52.3568 65.3854 52.2188 64.9062 52.2188ZM72.9844 56.2422L74.5547 50.5469H76.9141L74.0625 59H71.9062L69.0547 50.5469H71.4141L72.9844 56.2422ZM81.6953 59.1562C80.4557 59.1562 79.4453 58.776 78.6641 58.0156C77.888 57.2552 77.5 56.2422 77.5 54.9766V54.7578C77.5 53.9089 77.6641 53.151 77.9922 52.4844C78.3203 51.8125 78.7839 51.2969 79.3828 50.9375C79.987 50.5729 80.6745 50.3906 81.4453 50.3906C82.6016 50.3906 83.5104 50.7552 84.1719 51.4844C84.8385 52.2135 85.1719 53.2474 85.1719 54.5859V55.5078H79.7891C79.862 56.0599 80.0807 56.5026 80.4453 56.8359C80.8151 57.1693 81.2812 57.3359 81.8438 57.3359C82.7135 57.3359 83.3932 57.0208 83.8828 56.3906L84.9922 57.6328C84.6536 58.112 84.1953 58.487 83.6172 58.7578C83.0391 59.0234 82.3984 59.1562 81.6953 59.1562ZM81.4375 52.2188C80.9896 52.2188 80.625 52.3698 80.3438 52.6719C80.0677 52.974 79.8906 53.4062 79.8125 53.9688H82.9531V53.7891C82.9427 53.2891 82.8073 52.9036 82.5469 52.6328C82.2865 52.3568 81.9167 52.2188 81.4375 52.2188ZM88.8438 59H86.5781V47H88.8438V59ZM90.3594 54.6953C90.3594 53.8568 90.5208 53.1094 90.8438 52.4531C91.1667 51.7969 91.6302 51.2891 92.2344 50.9297C92.8438 50.5703 93.5495 50.3906 94.3516 50.3906C95.4922 50.3906 96.4219 50.7396 97.1406 51.4375C97.8646 52.1354 98.2682 53.0833 98.3516 54.2812L98.3672 54.8594C98.3672 56.1562 98.0052 57.1979 97.2812 57.9844C96.5573 58.7656 95.5859 59.1562 94.3672 59.1562C93.1484 59.1562 92.1745 58.7656 91.4453 57.9844C90.7214 57.2031 90.3594 56.1406 90.3594 54.7969V54.6953ZM92.6172 54.8594C92.6172 55.6615 92.7682 56.276 93.0703 56.7031C93.3724 57.125 93.8047 57.3359 94.3672 57.3359C94.9141 57.3359 95.3411 57.1276 95.6484 56.7109C95.9557 56.2891 96.1094 55.6172 96.1094 54.6953C96.1094 53.9089 95.9557 53.2995 95.6484 52.8672C95.3411 52.4349 94.9089 52.2188 94.3516 52.2188C93.7995 52.2188 93.3724 52.4349 93.0703 52.8672C92.7682 53.2943 92.6172 53.9583 92.6172 54.8594ZM107.367 54.8516C107.367 56.1536 107.07 57.1979 106.477 57.9844C105.888 58.7656 105.091 59.1562 104.086 59.1562C103.232 59.1562 102.542 58.8594 102.016 58.2656V62.25H99.7578V50.5469H101.852L101.93 51.375C102.477 50.7188 103.19 50.3906 104.07 50.3906C105.112 50.3906 105.922 50.776 106.5 51.5469C107.078 52.3177 107.367 53.3802 107.367 54.7344V54.8516ZM105.109 54.6875C105.109 53.901 104.969 53.2943 104.688 52.8672C104.411 52.4401 104.008 52.2266 103.477 52.2266C102.768 52.2266 102.281 52.4974 102.016 53.0391V56.5C102.292 57.0573 102.784 57.3359 103.492 57.3359C104.57 57.3359 105.109 56.4531 105.109 54.6875ZM112.664 59.1562C111.424 59.1562 110.414 58.776 109.633 58.0156C108.857 57.2552 108.469 56.2422 108.469 54.9766V54.7578C108.469 53.9089 108.633 53.151 108.961 52.4844C109.289 51.8125 109.753 51.2969 110.352 50.9375C110.956 50.5729 111.643 50.3906 112.414 50.3906C113.57 50.3906 114.479 50.7552 115.141 51.4844C115.807 52.2135 116.141 53.2474 116.141 54.5859V55.5078H110.758C110.831 56.0599 111.049 56.5026 111.414 56.8359C111.784 57.1693 112.25 57.3359 112.812 57.3359C113.682 57.3359 114.362 57.0208 114.852 56.3906L115.961 57.6328C115.622 58.112 115.164 58.487 114.586 58.7578C114.008 59.0234 113.367 59.1562 112.664 59.1562ZM112.406 52.2188C111.958 52.2188 111.594 52.3698 111.312 52.6719C111.036 52.974 110.859 53.4062 110.781 53.9688H113.922V53.7891C113.911 53.2891 113.776 52.9036 113.516 52.6328C113.255 52.3568 112.885 52.2188 112.406 52.2188ZM122.18 52.6641C121.872 52.6224 121.602 52.6016 121.367 52.6016C120.513 52.6016 119.953 52.8906 119.688 53.4688V59H117.43V50.5469H119.562L119.625 51.5547C120.078 50.7786 120.706 50.3906 121.508 50.3906C121.758 50.3906 121.992 50.4245 122.211 50.4922L122.18 52.6641ZM129.75 54.9922V59H127.406V47.625H131.844C132.698 47.625 133.448 47.7812 134.094 48.0938C134.745 48.4062 135.245 48.8516 135.594 49.4297C135.943 50.0026 136.117 50.6562 136.117 51.3906C136.117 52.5052 135.734 53.3854 134.969 54.0312C134.208 54.6719 133.154 54.9922 131.805 54.9922H129.75ZM129.75 53.0938H131.844C132.464 53.0938 132.935 52.9479 133.258 52.6562C133.586 52.3646 133.75 51.9479 133.75 51.4062C133.75 50.849 133.586 50.3984 133.258 50.0547C132.93 49.7109 132.477 49.5339 131.898 49.5234H129.75V53.0938ZM142.336 52.6641C142.029 52.6224 141.758 52.6016 141.523 52.6016C140.669 52.6016 140.109 52.8906 139.844 53.4688V59H137.586V50.5469H139.719L139.781 51.5547C140.234 50.7786 140.862 50.3906 141.664 50.3906C141.914 50.3906 142.148 50.4245 142.367 50.4922L142.336 52.6641ZM147.164 59.1562C145.924 59.1562 144.914 58.776 144.133 58.0156C143.357 57.2552 142.969 56.2422 142.969 54.9766V54.7578C142.969 53.9089 143.133 53.151 143.461 52.4844C143.789 51.8125 144.253 51.2969 144.852 50.9375C145.456 50.5729 146.143 50.3906 146.914 50.3906C148.07 50.3906 148.979 50.7552 149.641 51.4844C150.307 52.2135 150.641 53.2474 150.641 54.5859V55.5078H145.258C145.331 56.0599 145.549 56.5026 145.914 56.8359C146.284 57.1693 146.75 57.3359 147.312 57.3359C148.182 57.3359 148.862 57.0208 149.352 56.3906L150.461 57.6328C150.122 58.112 149.664 58.487 149.086 58.7578C148.508 59.0234 147.867 59.1562 147.164 59.1562ZM146.906 52.2188C146.458 52.2188 146.094 52.3698 145.812 52.6719C145.536 52.974 145.359 53.4062 145.281 53.9688H148.422V53.7891C148.411 53.2891 148.276 52.9036 148.016 52.6328C147.755 52.3568 147.385 52.2188 146.906 52.2188ZM154.984 56.2422L156.555 50.5469H158.914L156.062 59H153.906L151.055 50.5469H153.414L154.984 56.2422ZM162.297 59H160.031V50.5469H162.297V59ZM159.898 48.3594C159.898 48.0208 160.01 47.7422 160.234 47.5234C160.464 47.3047 160.773 47.1953 161.164 47.1953C161.549 47.1953 161.857 47.3047 162.086 47.5234C162.315 47.7422 162.43 48.0208 162.43 48.3594C162.43 48.7031 162.312 48.9844 162.078 49.2031C161.849 49.4219 161.544 49.5312 161.164 49.5312C160.784 49.5312 160.477 49.4219 160.242 49.2031C160.013 48.9844 159.898 48.7031 159.898 48.3594ZM168.055 59.1562C166.815 59.1562 165.805 58.776 165.023 58.0156C164.247 57.2552 163.859 56.2422 163.859 54.9766V54.7578C163.859 53.9089 164.023 53.151 164.352 52.4844C164.68 51.8125 165.143 51.2969 165.742 50.9375C166.346 50.5729 167.034 50.3906 167.805 50.3906C168.961 50.3906 169.87 50.7552 170.531 51.4844C171.198 52.2135 171.531 53.2474 171.531 54.5859V55.5078H166.148C166.221 56.0599 166.44 56.5026 166.805 56.8359C167.174 57.1693 167.641 57.3359 168.203 57.3359C169.073 57.3359 169.753 57.0208 170.242 56.3906L171.352 57.6328C171.013 58.112 170.555 58.487 169.977 58.7578C169.398 59.0234 168.758 59.1562 168.055 59.1562ZM167.797 52.2188C167.349 52.2188 166.984 52.3698 166.703 52.6719C166.427 52.974 166.25 53.4062 166.172 53.9688H169.312V53.7891C169.302 53.2891 169.167 52.9036 168.906 52.6328C168.646 52.3568 168.276 52.2188 167.797 52.2188ZM180.172 55.9297L181.281 50.5469H183.461L181.305 59H179.414L177.812 53.6797L176.211 59H174.328L172.172 50.5469H174.352L175.453 55.9219L177 50.5469H178.633L180.172 55.9297ZM189.164 56.6641C189.164 56.388 189.026 56.1719 188.75 56.0156C188.479 55.8542 188.042 55.7109 187.438 55.5859C185.427 55.1641 184.422 54.3099 184.422 53.0234C184.422 52.2734 184.732 51.6484 185.352 51.1484C185.977 50.6432 186.792 50.3906 187.797 50.3906C188.87 50.3906 189.727 50.6432 190.367 51.1484C191.013 51.6536 191.336 52.3099 191.336 53.1172H189.078C189.078 52.7943 188.974 52.5286 188.766 52.3203C188.557 52.1068 188.232 52 187.789 52C187.409 52 187.115 52.0859 186.906 52.2578C186.698 52.4297 186.594 52.6484 186.594 52.9141C186.594 53.1641 186.711 53.3672 186.945 53.5234C187.185 53.6745 187.586 53.8073 188.148 53.9219C188.711 54.0312 189.185 54.1562 189.57 54.2969C190.763 54.7344 191.359 55.4922 191.359 56.5703C191.359 57.3411 191.029 57.9661 190.367 58.4453C189.706 58.9193 188.852 59.1562 187.805 59.1562C187.096 59.1562 186.466 59.0312 185.914 58.7812C185.367 58.526 184.938 58.1797 184.625 57.7422C184.312 57.2995 184.156 56.8229 184.156 56.3125H186.297C186.318 56.7135 186.466 57.0208 186.742 57.2344C187.018 57.4479 187.388 57.5547 187.852 57.5547C188.284 57.5547 188.609 57.474 188.828 57.3125C189.052 57.1458 189.164 56.9297 189.164 56.6641Z" fill="#F86734"/>
<path opacity="0.5" d="M14.9727 83H103.973" stroke="#EA5426" stroke-width="2"/>
<path opacity="0.5" d="M102.973 83H231.973" stroke="#EA5426" stroke-width="2"/>
<g filter="url(#filter0_dd)">
<path d="M196.061 92.2346C201.12 92.2346 205.221 88.1383 205.221 83.0853C205.221 78.0323 201.12 73.936 196.061 73.936C191.002 73.936 186.9 78.0323 186.9 83.0853C186.9 88.1383 191.002 92.2346 196.061 92.2346Z" fill="white"/>
</g>
<g filter="url(#filter1_dd)">
<path d="M15.1605 92.2346C20.2198 92.2346 24.3211 88.1383 24.3211 83.0853C24.3211 78.0323 20.2198 73.936 15.1605 73.936C10.1013 73.936 6 78.0323 6 83.0853C6 88.1383 10.1013 92.2346 15.1605 92.2346Z" fill="white"/>
</g>
<g filter="url(#filter2_dd)">
<path d="M106.161 92.2346C111.22 92.2346 115.321 88.1383 115.321 83.0853C115.321 78.0323 111.22 73.936 106.161 73.936C101.101 73.936 97 78.0323 97 83.0853C97 88.1383 101.101 92.2346 106.161 92.2346Z" fill="white"/>
</g>
<path opacity="0.5" d="M196.062 88.3135C198.953 88.3135 201.296 85.9728 201.296 83.0853C201.296 80.1979 198.953 77.8572 196.062 77.8572C193.171 77.8572 190.827 80.1979 190.827 83.0853C190.827 85.9728 193.171 88.3135 196.062 88.3135Z" fill="#EA5426"/>
<path opacity="0.5" d="M15.1604 88.3135C18.0514 88.3135 20.395 85.9728 20.395 83.0853C20.395 80.1979 18.0514 77.8572 15.1604 77.8572C12.2694 77.8572 9.92578 80.1979 9.92578 83.0853C9.92578 85.9728 12.2694 88.3135 15.1604 88.3135Z" fill="#EA5426"/>
<path opacity="0.5" d="M106.16 88.3135C109.051 88.3135 111.395 85.9728 111.395 83.0853C111.395 80.1979 109.051 77.8572 106.16 77.8572C103.269 77.8572 100.926 80.1979 100.926 83.0853C100.926 85.9728 103.269 88.3135 106.16 88.3135Z" fill="#EA5426"/>
<path opacity="0.5" d="M231.973 83L541.973 83.0001" stroke="#1769E0" stroke-width="2"/>
<path opacity="0.5" d="M539.973 83L714.973 83.0001" stroke="#1769E0" stroke-width="2" stroke-dasharray="2 2"/>
<g filter="url(#filter3_dd)">
<path d="M274.161 92.2986C279.22 92.2986 283.321 88.2023 283.321 83.1493C283.321 78.0963 279.22 74 274.161 74C269.101 74 265 78.0963 265 83.1493C265 88.2023 269.101 92.2986 274.161 92.2986Z" fill="white"/>
</g>
<path opacity="0.5" d="M274.16 88.3775C277.051 88.3775 279.395 86.0367 279.395 83.1493C279.395 80.2619 277.051 77.9211 274.16 77.9211C271.269 77.9211 268.926 80.2619 268.926 83.1493C268.926 86.0367 271.269 88.3775 274.16 88.3775Z" fill="#1769E0"/>
<g filter="url(#filter4_dd)">
<path d="M450.139 92.2986C455.198 92.2986 459.3 88.2023 459.3 83.1493C459.3 78.0963 455.198 74 450.139 74C445.08 74 440.979 78.0963 440.979 83.1493C440.979 88.2023 445.08 92.2986 450.139 92.2986Z" fill="white"/>
</g>
<path opacity="0.5" d="M450.138 88.3775C453.029 88.3775 455.372 86.0367 455.372 83.1493C455.372 80.2619 453.029 77.9211 450.138 77.9211C447.247 77.9211 444.903 80.2619 444.903 83.1493C444.903 86.0367 447.247 88.3775 450.138 88.3775Z" fill="#1769E0"/>
<g filter="url(#filter5_dd)">
<path d="M539.581 92.2346C544.641 92.2346 548.742 88.1383 548.742 83.0853C548.742 78.0323 544.641 73.936 539.581 73.936C534.522 73.936 530.421 78.0323 530.421 83.0853C530.421 88.1383 534.522 92.2346 539.581 92.2346Z" fill="white"/>
</g>
<path opacity="0.5" d="M539.581 88.3135C542.472 88.3135 544.816 85.9728 544.816 83.0853C544.816 80.1979 542.472 77.8572 539.581 77.8572C536.69 77.8572 534.347 80.1979 534.347 83.0853C534.347 85.9728 536.69 88.3135 539.581 88.3135Z" fill="#1769E0"/>
<path opacity="0.5" d="M720.973 83L788.973 83" stroke="#188038" stroke-width="2"/>
<g filter="url(#filter6_dd)">
<path d="M721.034 92.2349C726.093 92.2349 730.194 88.1386 730.194 83.0856C730.194 78.0326 726.093 73.9363 721.034 73.9363C715.974 73.9363 711.873 78.0326 711.873 83.0856C711.873 88.1386 715.974 92.2349 721.034 92.2349Z" fill="white"/>
</g>
<path opacity="0.5" d="M721.033 88.3138C723.924 88.3138 726.268 85.973 726.268 83.0856C726.268 80.1982 723.924 77.8574 721.033 77.8574C718.142 77.8574 715.799 80.1982 715.799 83.0856C715.799 85.973 718.142 88.3138 721.033 88.3138Z" fill="#188038"/>
<path d="M11.5664 115.977H6.79297V121H5.29297V109.625H12.3398V110.859H6.79297V114.75H11.5664V115.977ZM17.2461 121.156C16.1003 121.156 15.168 120.781 14.4492 120.031C13.7305 119.276 13.3711 118.268 13.3711 117.008V116.742C13.3711 115.904 13.5299 115.156 13.8477 114.5C14.1706 113.839 14.6185 113.323 15.1914 112.953C15.7695 112.578 16.3945 112.391 17.0664 112.391C18.1654 112.391 19.0195 112.753 19.6289 113.477C20.2383 114.201 20.543 115.237 20.543 116.586V117.188H14.8164C14.8372 118.021 15.0794 118.695 15.543 119.211C16.0117 119.721 16.6055 119.977 17.3242 119.977C17.8346 119.977 18.2669 119.872 18.6211 119.664C18.9753 119.456 19.2852 119.18 19.5508 118.836L20.4336 119.523C19.7253 120.612 18.6628 121.156 17.2461 121.156ZM17.0664 113.578C16.4831 113.578 15.9935 113.792 15.5977 114.219C15.2018 114.641 14.957 115.234 14.8633 116H19.0977V115.891C19.056 115.156 18.8581 114.589 18.5039 114.188C18.1497 113.781 17.6706 113.578 17.0664 113.578ZM29.3789 116.867C29.3789 118.159 29.082 119.198 28.4883 119.984C27.8945 120.766 27.0977 121.156 26.0977 121.156C25.0299 121.156 24.2044 120.779 23.6211 120.023L23.5508 121H22.2227V109H23.668V113.477C24.2513 112.753 25.056 112.391 26.082 112.391C27.1081 112.391 27.9128 112.779 28.4961 113.555C29.0846 114.331 29.3789 115.393 29.3789 116.742V116.867ZM27.9336 116.703C27.9336 115.719 27.7435 114.958 27.3633 114.422C26.9831 113.885 26.4362 113.617 25.7227 113.617C24.7695 113.617 24.0846 114.06 23.668 114.945V118.602C24.1107 119.487 24.8008 119.93 25.7383 119.93C26.431 119.93 26.9701 119.661 27.3555 119.125C27.7409 118.589 27.9336 117.781 27.9336 116.703Z" fill="black"/>
<path d="M94.2305 109.625L97.9492 118.906L101.668 109.625H103.613V121H102.113V116.57L102.254 111.789L98.5195 121H97.3711L93.6445 111.812L93.793 116.57V121H92.293V109.625H94.2305ZM111.254 121C111.171 120.833 111.103 120.536 111.051 120.109C110.379 120.807 109.577 121.156 108.645 121.156C107.811 121.156 107.126 120.922 106.59 120.453C106.059 119.979 105.793 119.38 105.793 118.656C105.793 117.776 106.126 117.094 106.793 116.609C107.465 116.12 108.408 115.875 109.621 115.875H111.027V115.211C111.027 114.706 110.876 114.305 110.574 114.008C110.272 113.706 109.827 113.555 109.238 113.555C108.723 113.555 108.29 113.685 107.941 113.945C107.592 114.206 107.418 114.521 107.418 114.891H105.965C105.965 114.469 106.113 114.062 106.41 113.672C106.712 113.276 107.118 112.964 107.629 112.734C108.145 112.505 108.71 112.391 109.324 112.391C110.298 112.391 111.061 112.635 111.613 113.125C112.165 113.609 112.452 114.279 112.473 115.133V119.023C112.473 119.799 112.572 120.417 112.77 120.875V121H111.254ZM108.855 119.898C109.309 119.898 109.738 119.781 110.145 119.547C110.551 119.312 110.845 119.008 111.027 118.633V116.898H109.895C108.124 116.898 107.238 117.417 107.238 118.453C107.238 118.906 107.389 119.26 107.691 119.516C107.993 119.771 108.382 119.898 108.855 119.898ZM118.824 113.844C118.605 113.807 118.368 113.789 118.113 113.789C117.165 113.789 116.522 114.193 116.184 115V121H114.738V112.547H116.145L116.168 113.523C116.642 112.768 117.314 112.391 118.184 112.391C118.465 112.391 118.678 112.427 118.824 112.5V113.844Z" fill="black"/>
<path d="M190.574 118.031H185.809L184.738 121H183.191L187.535 109.625H188.848L193.199 121H191.66L190.574 118.031ZM186.262 116.797H190.129L188.191 111.477L186.262 116.797ZM201.645 116.867C201.645 118.154 201.35 119.19 200.762 119.977C200.173 120.763 199.376 121.156 198.371 121.156C197.345 121.156 196.538 120.831 195.949 120.18V124.25H194.504V112.547H195.824L195.895 113.484C196.483 112.755 197.301 112.391 198.348 112.391C199.363 112.391 200.165 112.773 200.754 113.539C201.348 114.305 201.645 115.37 201.645 116.734V116.867ZM200.199 116.703C200.199 115.75 199.996 114.997 199.59 114.445C199.184 113.893 198.626 113.617 197.918 113.617C197.043 113.617 196.387 114.005 195.949 114.781V118.82C196.382 119.591 197.043 119.977 197.934 119.977C198.626 119.977 199.176 119.703 199.582 119.156C199.993 118.604 200.199 117.786 200.199 116.703ZM207.574 113.844C207.355 113.807 207.118 113.789 206.863 113.789C205.915 113.789 205.272 114.193 204.934 115V121H203.488V112.547H204.895L204.918 113.523C205.392 112.768 206.064 112.391 206.934 112.391C207.215 112.391 207.428 112.427 207.574 112.5V113.844Z" fill="black"/>
<path d="M263.23 109.625L266.949 118.906L270.668 109.625H272.613V121H271.113V116.57L271.254 111.789L267.52 121H266.371L262.645 111.812L262.793 116.57V121H261.293V109.625H263.23ZM280.254 121C280.171 120.833 280.103 120.536 280.051 120.109C279.379 120.807 278.577 121.156 277.645 121.156C276.811 121.156 276.126 120.922 275.59 120.453C275.059 119.979 274.793 119.38 274.793 118.656C274.793 117.776 275.126 117.094 275.793 116.609C276.465 116.12 277.408 115.875 278.621 115.875H280.027V115.211C280.027 114.706 279.876 114.305 279.574 114.008C279.272 113.706 278.827 113.555 278.238 113.555C277.723 113.555 277.29 113.685 276.941 113.945C276.592 114.206 276.418 114.521 276.418 114.891H274.965C274.965 114.469 275.113 114.062 275.41 113.672C275.712 113.276 276.118 112.964 276.629 112.734C277.145 112.505 277.71 112.391 278.324 112.391C279.298 112.391 280.061 112.635 280.613 113.125C281.165 113.609 281.452 114.279 281.473 115.133V119.023C281.473 119.799 281.572 120.417 281.77 120.875V121H280.254ZM277.855 119.898C278.309 119.898 278.738 119.781 279.145 119.547C279.551 119.312 279.845 119.008 280.027 118.633V116.898H278.895C277.124 116.898 276.238 117.417 276.238 118.453C276.238 118.906 276.389 119.26 276.691 119.516C276.993 119.771 277.382 119.898 277.855 119.898ZM286.379 118.883L288.348 112.547H289.895L286.496 122.305C285.97 123.711 285.134 124.414 283.988 124.414L283.715 124.391L283.176 124.289V123.117L283.566 123.148C284.056 123.148 284.436 123.049 284.707 122.852C284.983 122.654 285.21 122.292 285.387 121.766L285.707 120.906L282.691 112.547H284.27L286.379 118.883Z" fill="black"/>
<path d="M353.059 109.625H354.566V117.68C354.566 118.768 354.238 119.62 353.582 120.234C352.931 120.849 352.061 121.156 350.973 121.156C349.842 121.156 348.962 120.867 348.332 120.289C347.702 119.711 347.387 118.901 347.387 117.859H348.887C348.887 118.51 349.064 119.018 349.418 119.383C349.777 119.747 350.296 119.93 350.973 119.93C351.592 119.93 352.092 119.734 352.473 119.344C352.858 118.953 353.053 118.406 353.059 117.703V109.625ZM362.113 120.164C361.551 120.826 360.725 121.156 359.637 121.156C358.736 121.156 358.048 120.896 357.574 120.375C357.105 119.849 356.868 119.073 356.863 118.047V112.547H358.309V118.008C358.309 119.289 358.829 119.93 359.871 119.93C360.975 119.93 361.71 119.518 362.074 118.695V112.547H363.52V121H362.145L362.113 120.164ZM367.09 112.547L367.137 113.609C367.783 112.797 368.626 112.391 369.668 112.391C371.454 112.391 372.355 113.398 372.371 115.414V121H370.926V115.406C370.921 114.797 370.78 114.346 370.504 114.055C370.233 113.763 369.809 113.617 369.23 113.617C368.762 113.617 368.35 113.742 367.996 113.992C367.642 114.242 367.366 114.57 367.168 114.977V121H365.723V112.547H367.09Z" fill="black"/>
<path d="M444.059 109.625H445.566V117.68C445.566 118.768 445.238 119.62 444.582 120.234C443.931 120.849 443.061 121.156 441.973 121.156C440.842 121.156 439.962 120.867 439.332 120.289C438.702 119.711 438.387 118.901 438.387 117.859H439.887C439.887 118.51 440.064 119.018 440.418 119.383C440.777 119.747 441.296 119.93 441.973 119.93C442.592 119.93 443.092 119.734 443.473 119.344C443.858 118.953 444.053 118.406 444.059 117.703V109.625ZM453.113 120.164C452.551 120.826 451.725 121.156 450.637 121.156C449.736 121.156 449.048 120.896 448.574 120.375C448.105 119.849 447.868 119.073 447.863 118.047V112.547H449.309V118.008C449.309 119.289 449.829 119.93 450.871 119.93C451.975 119.93 452.71 119.518 453.074 118.695V112.547H454.52V121H453.145L453.113 120.164ZM458.293 121H456.848V109H458.293V121Z" fill="black"/>
<path d="M532.574 118.031H527.809L526.738 121H525.191L529.535 109.625H530.848L535.199 121H533.66L532.574 118.031ZM528.262 116.797H532.129L530.191 111.477L528.262 116.797ZM541.629 120.164C541.066 120.826 540.241 121.156 539.152 121.156C538.251 121.156 537.564 120.896 537.09 120.375C536.621 119.849 536.384 119.073 536.379 118.047V112.547H537.824V118.008C537.824 119.289 538.345 119.93 539.387 119.93C540.491 119.93 541.225 119.518 541.59 118.695V112.547H543.035V121H541.66L541.629 120.164ZM544.895 116.703C544.895 115.385 545.199 114.339 545.809 113.562C546.418 112.781 547.225 112.391 548.23 112.391C549.262 112.391 550.066 112.755 550.645 113.484L550.715 112.547H552.035V120.797C552.035 121.891 551.71 122.753 551.059 123.383C550.413 124.013 549.543 124.328 548.449 124.328C547.84 124.328 547.243 124.198 546.66 123.938C546.077 123.677 545.632 123.32 545.324 122.867L546.074 122C546.694 122.766 547.452 123.148 548.348 123.148C549.051 123.148 549.598 122.951 549.988 122.555C550.384 122.159 550.582 121.602 550.582 120.883V120.156C550.004 120.823 549.215 121.156 548.215 121.156C547.225 121.156 546.423 120.758 545.809 119.961C545.199 119.164 544.895 118.078 544.895 116.703ZM546.348 116.867C546.348 117.82 546.543 118.57 546.934 119.117C547.324 119.659 547.871 119.93 548.574 119.93C549.486 119.93 550.155 119.516 550.582 118.688V114.828C550.139 114.021 549.475 113.617 548.59 113.617C547.887 113.617 547.337 113.891 546.941 114.438C546.546 114.984 546.348 115.794 546.348 116.867Z" fill="#073042"/>
<g filter="url(#filter7_dd)">
<path d="M360.52 99C369.644 99 377.041 91.6127 377.041 82.5C377.041 73.3873 369.644 66 360.52 66C351.396 66 344 73.3873 344 82.5C344 91.6127 351.396 99 360.52 99Z" fill="white"/>
</g>
<path d="M360.512 92C365.765 92 370.023 87.7467 370.023 82.5C370.023 77.2533 365.765 73 360.512 73C355.259 73 351 77.2533 351 82.5C351 87.7467 355.259 92 360.512 92Z" fill="#2671EA"/>
</g>
<defs>
<filter id="filter0_dd" x="154.224" y="59.5586" width="83.6732" height="83.6507" filterUnits="userSpaceOnUse" color-interpolation-filters="sRGB">
<feFlood flood-opacity="0" result="BackgroundImageFix"/>
<feColorMatrix in="SourceAlpha" type="matrix" values="0 0 0 0 0 0 0 0 0 0 0 0 0 0 0 0 0 0 127 0"/>
<feOffset dy="18.2986"/>
<feGaussianBlur stdDeviation="16.338"/>
<feColorMatrix type="matrix" values="0 0 0 0 0.235294 0 0 0 0 0.25098 0 0 0 0 0.262745 0 0 0 0.08 0"/>
<feBlend mode="normal" in2="BackgroundImageFix" result="effect1_dropShadow"/>
<feColorMatrix in="SourceAlpha" type="matrix" values="0 0 0 0 0 0 0 0 0 0 0 0 0 0 0 0 0 0 127 0"/>
<feOffset dy="5.22817"/>
<feGaussianBlur stdDeviation="8.49578"/>
<feColorMatrix type="matrix" values="0 0 0 0 0.235294 0 0 0 0 0.25098 0 0 0 0 0.262745 0 0 0 0.12 0"/>
<feBlend mode="normal" in2="effect1_dropShadow" result="effect2_dropShadow"/>
<feBlend mode="normal" in="SourceGraphic" in2="effect2_dropShadow" result="shape"/>
</filter>
<filter id="filter1_dd" x="-26.6761" y="59.5586" width="83.6732" height="83.6507" filterUnits="userSpaceOnUse" color-interpolation-filters="sRGB">
<feFlood flood-opacity="0" result="BackgroundImageFix"/>
<feColorMatrix in="SourceAlpha" type="matrix" values="0 0 0 0 0 0 0 0 0 0 0 0 0 0 0 0 0 0 127 0"/>
<feOffset dy="18.2986"/>
<feGaussianBlur stdDeviation="16.338"/>
<feColorMatrix type="matrix" values="0 0 0 0 0.235294 0 0 0 0 0.25098 0 0 0 0 0.262745 0 0 0 0.08 0"/>
<feBlend mode="normal" in2="BackgroundImageFix" result="effect1_dropShadow"/>
<feColorMatrix in="SourceAlpha" type="matrix" values="0 0 0 0 0 0 0 0 0 0 0 0 0 0 0 0 0 0 127 0"/>
<feOffset dy="5.22817"/>
<feGaussianBlur stdDeviation="8.49578"/>
<feColorMatrix type="matrix" values="0 0 0 0 0.235294 0 0 0 0 0.25098 0 0 0 0 0.262745 0 0 0 0.12 0"/>
<feBlend mode="normal" in2="effect1_dropShadow" result="effect2_dropShadow"/>
<feBlend mode="normal" in="SourceGraphic" in2="effect2_dropShadow" result="shape"/>
</filter>
<filter id="filter2_dd" x="64.3239" y="59.5586" width="83.6732" height="83.6507" filterUnits="userSpaceOnUse" color-interpolation-filters="sRGB">
<feFlood flood-opacity="0" result="BackgroundImageFix"/>
<feColorMatrix in="SourceAlpha" type="matrix" values="0 0 0 0 0 0 0 0 0 0 0 0 0 0 0 0 0 0 127 0"/>
<feOffset dy="18.2986"/>
<feGaussianBlur stdDeviation="16.338"/>
<feColorMatrix type="matrix" values="0 0 0 0 0.235294 0 0 0 0 0.25098 0 0 0 0 0.262745 0 0 0 0.08 0"/>
<feBlend mode="normal" in2="BackgroundImageFix" result="effect1_dropShadow"/>
<feColorMatrix in="SourceAlpha" type="matrix" values="0 0 0 0 0 0 0 0 0 0 0 0 0 0 0 0 0 0 127 0"/>
<feOffset dy="5.22817"/>
<feGaussianBlur stdDeviation="8.49578"/>
<feColorMatrix type="matrix" values="0 0 0 0 0.235294 0 0 0 0 0.25098 0 0 0 0 0.262745 0 0 0 0.12 0"/>
<feBlend mode="normal" in2="effect1_dropShadow" result="effect2_dropShadow"/>
<feBlend mode="normal" in="SourceGraphic" in2="effect2_dropShadow" result="shape"/>
</filter>
<filter id="filter3_dd" x="232.324" y="59.6225" width="83.6732" height="83.6507" filterUnits="userSpaceOnUse" color-interpolation-filters="sRGB">
<feFlood flood-opacity="0" result="BackgroundImageFix"/>
<feColorMatrix in="SourceAlpha" type="matrix" values="0 0 0 0 0 0 0 0 0 0 0 0 0 0 0 0 0 0 127 0"/>
<feOffset dy="18.2986"/>
<feGaussianBlur stdDeviation="16.338"/>
<feColorMatrix type="matrix" values="0 0 0 0 0.235294 0 0 0 0 0.25098 0 0 0 0 0.262745 0 0 0 0.08 0"/>
<feBlend mode="normal" in2="BackgroundImageFix" result="effect1_dropShadow"/>
<feColorMatrix in="SourceAlpha" type="matrix" values="0 0 0 0 0 0 0 0 0 0 0 0 0 0 0 0 0 0 127 0"/>
<feOffset dy="5.22817"/>
<feGaussianBlur stdDeviation="8.49578"/>
<feColorMatrix type="matrix" values="0 0 0 0 0.235294 0 0 0 0 0.25098 0 0 0 0 0.262745 0 0 0 0.12 0"/>
<feBlend mode="normal" in2="effect1_dropShadow" result="effect2_dropShadow"/>
<feBlend mode="normal" in="SourceGraphic" in2="effect2_dropShadow" result="shape"/>
</filter>
<filter id="filter4_dd" x="408.302" y="59.6225" width="83.6732" height="83.6507" filterUnits="userSpaceOnUse" color-interpolation-filters="sRGB">
<feFlood flood-opacity="0" result="BackgroundImageFix"/>
<feColorMatrix in="SourceAlpha" type="matrix" values="0 0 0 0 0 0 0 0 0 0 0 0 0 0 0 0 0 0 127 0"/>
<feOffset dy="18.2986"/>
<feGaussianBlur stdDeviation="16.338"/>
<feColorMatrix type="matrix" values="0 0 0 0 0.235294 0 0 0 0 0.25098 0 0 0 0 0.262745 0 0 0 0.08 0"/>
<feBlend mode="normal" in2="BackgroundImageFix" result="effect1_dropShadow"/>
<feColorMatrix in="SourceAlpha" type="matrix" values="0 0 0 0 0 0 0 0 0 0 0 0 0 0 0 0 0 0 127 0"/>
<feOffset dy="5.22817"/>
<feGaussianBlur stdDeviation="8.49578"/>
<feColorMatrix type="matrix" values="0 0 0 0 0.235294 0 0 0 0 0.25098 0 0 0 0 0.262745 0 0 0 0.12 0"/>
<feBlend mode="normal" in2="effect1_dropShadow" result="effect2_dropShadow"/>
<feBlend mode="normal" in="SourceGraphic" in2="effect2_dropShadow" result="shape"/>
</filter>
<filter id="filter5_dd" x="497.745" y="59.5586" width="83.6732" height="83.6507" filterUnits="userSpaceOnUse" color-interpolation-filters="sRGB">
<feFlood flood-opacity="0" result="BackgroundImageFix"/>
<feColorMatrix in="SourceAlpha" type="matrix" values="0 0 0 0 0 0 0 0 0 0 0 0 0 0 0 0 0 0 127 0"/>
<feOffset dy="18.2986"/>
<feGaussianBlur stdDeviation="16.338"/>
<feColorMatrix type="matrix" values="0 0 0 0 0.235294 0 0 0 0 0.25098 0 0 0 0 0.262745 0 0 0 0.08 0"/>
<feBlend mode="normal" in2="BackgroundImageFix" result="effect1_dropShadow"/>
<feColorMatrix in="SourceAlpha" type="matrix" values="0 0 0 0 0 0 0 0 0 0 0 0 0 0 0 0 0 0 127 0"/>
<feOffset dy="5.22817"/>
<feGaussianBlur stdDeviation="8.49578"/>
<feColorMatrix type="matrix" values="0 0 0 0 0.235294 0 0 0 0 0.25098 0 0 0 0 0.262745 0 0 0 0.12 0"/>
<feBlend mode="normal" in2="effect1_dropShadow" result="effect2_dropShadow"/>
<feBlend mode="normal" in="SourceGraphic" in2="effect2_dropShadow" result="shape"/>
</filter>
<filter id="filter6_dd" x="679.197" y="59.5588" width="83.6732" height="83.6507" filterUnits="userSpaceOnUse" color-interpolation-filters="sRGB">
<feFlood flood-opacity="0" result="BackgroundImageFix"/>
<feColorMatrix in="SourceAlpha" type="matrix" values="0 0 0 0 0 0 0 0 0 0 0 0 0 0 0 0 0 0 127 0"/>
<feOffset dy="18.2986"/>
<feGaussianBlur stdDeviation="16.338"/>
<feColorMatrix type="matrix" values="0 0 0 0 0.235294 0 0 0 0 0.25098 0 0 0 0 0.262745 0 0 0 0.08 0"/>
<feBlend mode="normal" in2="BackgroundImageFix" result="effect1_dropShadow"/>
<feColorMatrix in="SourceAlpha" type="matrix" values="0 0 0 0 0 0 0 0 0 0 0 0 0 0 0 0 0 0 127 0"/>
<feOffset dy="5.22817"/>
<feGaussianBlur stdDeviation="8.49578"/>
<feColorMatrix type="matrix" values="0 0 0 0 0.235294 0 0 0 0 0.25098 0 0 0 0 0.262745 0 0 0 0.12 0"/>
<feBlend mode="normal" in2="effect1_dropShadow" result="effect2_dropShadow"/>
<feBlend mode="normal" in="SourceGraphic" in2="effect2_dropShadow" result="shape"/>
</filter>
<filter id="filter7_dd" x="311.324" y="51.6225" width="98.3927" height="98.3521" filterUnits="userSpaceOnUse" color-interpolation-filters="sRGB">
<feFlood flood-opacity="0" result="BackgroundImageFix"/>
<feColorMatrix in="SourceAlpha" type="matrix" values="0 0 0 0 0 0 0 0 0 0 0 0 0 0 0 0 0 0 127 0"/>
<feOffset dy="18.2986"/>
<feGaussianBlur stdDeviation="16.338"/>
<feColorMatrix type="matrix" values="0 0 0 0 0.235294 0 0 0 0 0.25098 0 0 0 0 0.262745 0 0 0 0.08 0"/>
<feBlend mode="normal" in2="BackgroundImageFix" result="effect1_dropShadow"/>
<feColorMatrix in="SourceAlpha" type="matrix" values="0 0 0 0 0 0 0 0 0 0 0 0 0 0 0 0 0 0 127 0"/>
<feOffset dy="5.22817"/>
<feGaussianBlur stdDeviation="8.49578"/>
<feColorMatrix type="matrix" values="0 0 0 0 0.235294 0 0 0 0 0.25098 0 0 0 0 0.262745 0 0 0 0.12 0"/>
<feBlend mode="normal" in2="effect1_dropShadow" result="effect2_dropShadow"/>
<feBlend mode="normal" in="SourceGraphic" in2="effect2_dropShadow" result="shape"/>
</filter>
<clipPath id="clip0">
<rect width="789" height="180" fill="white"/>
</clipPath>
</defs>
</svg>
